<svg width="180" height="180" viewBox="0 0 180 180" fill="none" xmlns="http://www.w3.org/2000/svg">
  <rect width="180" height="180" rx="44" fill="#2563EB"/>
  <rect x="36" y="30" width="108" height="120" rx="24" fill="#EFF6FF"/>
  <rect x="72" y="20" width="36" height="18" rx="9" fill="#1D4ED8"/>
  <rect x="58" y="62" width="14" height="14" rx="4" fill="#16A34A"/>
  <rect x="58" y="90" width="14" height="14" rx="4" fill="#1D4ED8"/>
  <rect x="58" y="118" width="14" height="14" rx="4" fill="#16A34A"/>
  <rect x="80" y="64" width="42" height="4.5" rx="2.25" fill="#0F172A"/>
  <rect x="80" y="72" width="32" height="4.5" rx="2.25" fill="#64748B"/>
  <rect x="80" y="92" width="48" height="4.5" rx="2.25" fill="#0F172A"/>
  <rect x="80" y="100" width="38" height="4.5" rx="2.25" fill="#64748B"/>
  <rect x="80" y="120" width="46" height="4.5" rx="2.25" fill="#0F172A"/>
  <rect x="80" y="128" width="28" height="4.5" rx="2.25" fill="#64748B"/>
</svg>
