<svg width="256" height="256" viewBox="0 0 256 256" fill="none" xmlns="http://www.w3.org/2000/svg">
  <rect width="256" height="256" rx="72" fill="#2563EB"/>
  <rect x="50" y="42" width="156" height="172" rx="34" fill="#EFF6FF"/>
  <rect x="92" y="28" width="72" height="28" rx="14" fill="#1D4ED8"/>
  <rect x="82" y="88" width="20" height="20" rx="6" fill="#16A34A"/>
  <rect x="82" y="128" width="20" height="20" rx="6" fill="#1D4ED8"/>
  <rect x="82" y="168" width="20" height="20" rx="6" fill="#16A34A"/>
  <rect x="114" y="91" width="58" height="6" rx="3" fill="#0F172A"/>
  <rect x="114" y="101" width="44" height="6" rx="3" fill="#64748B"/>
  <rect x="114" y="131" width="64" height="6" rx="3" fill="#0F172A"/>
  <rect x="114" y="141" width="52" height="6" rx="3" fill="#64748B"/>
  <rect x="114" y="171" width="62" height="6" rx="3" fill="#0F172A"/>
  <rect x="114" y="181" width="40" height="6" rx="3" fill="#64748B"/>
</svg>
